<?xml version="1.0" encoding="iso-8859-1"?>
<!-- Uploaded to: SVG Repo, www.svgrepo.com, Generator: SVG Repo Mixer Tools -->
<!DOCTYPE svg PUBLIC "-//W3C//DTD SVG 1.1//EN" "http://www.w3.org/Graphics/SVG/1.1/DTD/svg11.dtd">
<svg xmlns="http://www.w3.org/2000/svg" xmlns:xlink="http://www.w3.org/1999/xlink" version="1.1" id="Layer_1"  width="512" height="512" viewBox="0 0 128 128" xml:space="preserve">
<g>
	<circle style="fill:#4AB8A1;" cx="64" cy="64" r="64"/>
	<path style="fill:#43A691;" d="M122.724,89.457L94.859,21.491l-0.004-0.002c-1.089-3.115-4.527-4.771-7.644-3.683l-21.094,7.37   l-10.855,3.731L45,32.428v0.002l-10,3.731v0.001l-4.633,1.56l-0.205-0.123c-0.287,0.045-0.605,0.119-0.873,0.208   c-0.238,0.073-0.484,0.167-0.708,0.268c-0.001,0-0.013,0.001-0.014,0.001C26.482,39.018,25,41.094,25,43.52v0.512v0.512V56.52V57   v0.035v0.478v0.035v0.478V73v0.512v0.512v26.498v0.513v0.512c0,1.179,0.402,2.335,1.063,3.339l5.768,14.434   C41.284,124.829,52.269,128,64,128C90.297,128,112.879,112.134,122.724,89.457z"/>
	<g>
		<path style="fill:#B3B3B3;" d="M103,57v43.521c0,3.301-2.7,6.479-6,6.479H31c-3.3,0-6-3.178-6-6.479V57H103z"/>
		<path style="fill:#A6A6A6;" d="M100,57v43.521c0,3.301-2.7,6.479-6,6.479h3c3.3,0,6-3.178,6-6.479V57H100z"/>
		<path style="fill:#263740;" d="M62,83.521c0-1.649,1.149-2.293,2.555-1.428l7.892,4.855c1.404,0.863,1.404,2.279,0,3.145    l-7.892,4.855C63.15,95.813,62,95.171,62,93.521V83.521z"/>
		<path style="fill:#242424;" d="M30,57.919l69.142-24.148l-4.286-12.272c-1.089-3.115-4.527-4.774-7.644-3.687L30,37.794V57.919z"/>
		<polygon style="fill:#FFD464;" points="58.87,47.836 69.552,44.105 45.349,32.433 34.668,36.163   "/>
		<polygon style="fill:#FFD464;" points="66.118,25.179 55.438,28.909 79.641,40.582 90.321,36.852   "/>
		<polygon style="fill:#FFD464;" points="76.207,21.655 98.698,32.502 94.968,21.821 86.889,17.925   "/>
		<g>
			<rect x="25" y="57" style="fill:#242424;" width="78" height="16"/>
			<g>
				<polygon style="fill:#FFD464;" points="93.656,57 82.343,57 66.343,73 77.656,73     "/>
				<polygon style="fill:#FFD464;" points="99.656,73 103,69.18 103,57.865 88.343,73     "/>
				<polygon style="fill:#FFD464;" points="44.343,73 55.656,73 71.656,57 60.343,57     "/>
			</g>
		</g>
		<path style="fill:#E6E6E6;" d="M30.079,37.601C27.213,38.049,25,40.537,25,43.523v13V73h8.001L49,56.761l0,0L30.079,37.601z"/>
		<path style="fill:#D9D9D9;" d="M30.079,37.601c-0.538,0.084-1.041,0.261-1.522,0.478L47,56.761l0,0L31.001,73h2L49,56.761l0,0    L30.079,37.601z"/>
		<circle style="fill:#242424;" cx="34" cy="56.522" r="5"/>
		<circle style="fill:#FFFFFF;" cx="34" cy="56.522" r="3"/>
	</g>
	<path style="fill:#263740;" d="M103,57v43.521c0,3.301-2.7,6.479-6,6.479H31c-3.3,0-6-3.178-6-6.479V57H103z"/>
	<path style="fill:#1E2C33;" d="M100,57v43.521c0,3.301-2.7,6.479-6,6.479h3c3.3,0,6-3.178,6-6.479V57H100z"/>
	<path style="fill:#F5F5F5;" d="M62,83.521c0-1.649,1.149-2.293,2.555-1.428l7.892,4.855c1.404,0.863,1.404,2.279,0,3.145   l-7.892,4.855C63.15,95.813,62,95.171,62,93.521V83.521z"/>
	<path style="fill:#242424;" d="M30,57.919l69.142-24.148l-4.286-12.272c-1.089-3.115-4.527-4.774-7.644-3.687L30,37.794V57.919z"/>
	<polygon style="fill:#FFD464;" points="58.87,47.836 69.552,44.105 45.349,32.433 34.668,36.163  "/>
	<polygon style="fill:#FFD464;" points="66.118,25.179 55.438,28.909 79.641,40.582 90.321,36.852  "/>
	<polygon style="fill:#FFD464;" points="76.207,21.655 98.698,32.502 94.968,21.821 86.889,17.925  "/>
	<g>
		<rect x="25" y="57" style="fill:#242424;" width="78" height="16"/>
		<g>
			<polygon style="fill:#FFD464;" points="93.656,57 82.343,57 66.343,73 77.656,73    "/>
			<polygon style="fill:#FFD464;" points="99.656,73 103,69.18 103,57.865 88.343,73    "/>
			<polygon style="fill:#FFD464;" points="44.343,73 55.656,73 71.656,57 60.343,57    "/>
		</g>
	</g>
	<path style="fill:#263740;" d="M30.079,37.601C27.213,38.049,25,40.537,25,43.523v13V73h8.001L49,56.761l0,0L30.079,37.601z"/>
	<path style="fill:#D9D9D9;" d="M30.079,37.601c-0.538,0.084-1.041,0.261-1.522,0.478L47,56.761l0,0L31.001,73h2L49,56.761l0,0   L30.079,37.601z"/>
	<circle style="fill:#F5F5F5;" cx="34" cy="56.522" r="5"/>
	<circle style="fill:#263740;" cx="34" cy="56.522" r="3"/>
	<rect x="25" y="73" style="fill:#D9D9D9;" width="78" height="2"/>
</g>
</svg>