<?xml version="1.0" standalone="no"?>
<!DOCTYPE svg PUBLIC "-//W3C//DTD SVG 20010904//EN"
 "http://www.w3.org/TR/2001/REC-SVG-20010904/DTD/svg10.dtd">
<svg version="1.0" xmlns="http://www.w3.org/2000/svg"
 width="767.000000pt" height="172.000000pt" viewBox="0 0 767.000000 172.000000"
 preserveAspectRatio="xMidYMid meet">

<g transform="translate(0.000000,172.000000) scale(0.100000,-0.100000)"
fill="#000000" stroke="none">
<path d="M140 871 l0 -679 573 -3 c314 -2 724 -2 910 0 l337 3 0 679 0 679
-910 0 -910 0 0 -679z m230 449 l0 -110 -55 0 -55 0 0 110 0 110 55 0 55 0 0
-110z m1250 -455 l0 -565 -570 0 -570 0 0 565 0 565 570 0 570 0 0 -565z m230
455 l0 -110 -60 0 -60 0 0 110 0 110 60 0 60 0 0 -110z m-1480 -455 l0 -115
-55 0 -55 0 0 115 0 115 55 0 55 0 0 -115z m1480 0 l0 -115 -60 0 -60 0 0 115
0 115 60 0 60 0 0 -115z m-1480 -455 l0 -110 -55 0 -55 0 0 110 0 110 55 0 55
0 0 -110z m1480 0 l0 -110 -60 0 -60 0 0 110 0 110 60 0 60 0 0 -110z"/>
<path d="M710 865 c0 -184 2 -335 5 -335 20 0 666 333 659 340 -9 9 -651 330
-659 330 -3 0 -5 -151 -5 -335z"/>
<path d="M3900 867 l0 -547 105 0 105 0 0 295 c0 162 2 295 5 295 4 0 146
-134 317 -297 170 -164 314 -299 319 -301 5 -2 9 224 9 537 l0 541 -110 0
-110 0 0 -296 0 -296 -237 229 c-131 125 -275 264 -320 307 l-83 80 0 -547z"/>
<path d="M3317 1374 c-13 -26 -400 -891 -448 -1002 l-19 -43 117 3 116 3 33
75 33 75 184 3 184 2 28 -67 c16 -38 33 -74 38 -80 10 -14 227 -19 227 -6 0 8
-432 978 -460 1032 l-17 35 -16 -30z m68 -594 c25 -58 45 -106 45 -107 0 -2
-43 -3 -95 -3 -52 0 -95 1 -95 3 0 1 16 41 36 87 20 47 40 96 45 109 5 13 12
22 14 19 2 -2 25 -51 50 -108z"/>
<path d="M2360 855 l0 -535 105 0 105 0 0 215 0 215 160 0 160 0 0 105 0 105
-160 0 -160 0 0 110 0 110 215 0 215 0 0 105 0 105 -320 0 -320 0 0 -535z"/>
<path d="M4860 855 l0 -535 110 0 110 0 0 215 0 215 160 0 160 0 0 105 0 105
-160 0 -160 0 0 110 0 110 210 0 210 0 0 105 0 105 -320 0 -320 0 0 -535z"/>
<path d="M5580 855 l0 -535 320 0 320 0 0 110 0 110 -210 0 -210 0 0 425 0
425 -110 0 -110 0 0 -535z"/>
<path d="M6300 855 l0 -535 110 0 110 0 0 535 0 535 -110 0 -110 0 0 -535z"/>
<path d="M6603 1383 c3 -5 71 -124 151 -266 l147 -258 -43 -77 c-23 -42 -91
-162 -150 -266 -59 -103 -108 -190 -108 -192 0 -3 55 -3 122 -2 l123 3 86 153
c48 84 90 153 94 153 4 0 46 -69 94 -153 l86 -153 123 -3 c67 -1 122 -1 122 2
0 2 -68 122 -150 267 -83 144 -149 268 -146 275 3 9 192 342 293 517 2 4 -51
7 -119 7 l-123 0 -89 -157 c-77 -134 -91 -154 -101 -139 -7 9 -48 79 -91 156
l-79 140 -123 0 c-68 0 -121 -3 -119 -7z"/>
</g>
</svg>
