<svg width="20" height="20" viewBox="0 0 20 20" fill="none" xmlns="http://www.w3.org/2000/svg">
<path d="M10 0.379883L7.14 11.0599C6.8 12.0999 7.04 13.2899 7.86 14.1199C9.04 15.2899 10.94 15.2899 12.11 14.1199C12.9 13.3299 13.16 12.1999 12.89 11.2099M12.6 2.34988L13.22 4.67988C16.04 5.91988 18 8.72988 18 11.9999C18 14.2099 17.11 16.2099 15.66 17.6499H15.65C15.26 18.0399 15.26 18.6699 15.65 19.0599C16.04 19.4499 16.68 19.4499 17.07 19.0699C18.88 17.2599 20 14.7599 20 11.9999C20 7.37988 16.86 3.49988 12.6 2.34988ZM7.4 2.35988C3.15 3.49988 0 7.39988 0 11.9999C0 14.7599 1.12 17.2599 2.93 19.0699C3.32 19.4499 3.95 19.4499 4.34 19.0599C4.73 18.6699 4.73 18.0399 4.34 17.6499C2.89 16.1999 2 14.2099 2 11.9999C2 8.64988 3.94 5.85988 6.79 4.64988" fill="black"/>
</svg>


