<svg width="20" height="20" viewBox="0 0 20 20" fill="none" xmlns="http://www.w3.org/2000/svg">
<path d="M14.1667 9.16668H4.50835L6.42502 7.25834C6.50271 7.18064 6.56435 7.0884 6.6064 6.98688C6.64845 6.88537 6.67009 6.77656 6.67009 6.66668C6.67009 6.55679 6.64845 6.44799 6.6064 6.34647C6.56435 6.24495 6.50271 6.15271 6.42502 6.07501C6.34732 5.99731 6.25507 5.93568 6.15356 5.89363C6.05204 5.85158 5.94323 5.82993 5.83335 5.82993C5.72347 5.82993 5.61466 5.85158 5.51314 5.89363C5.41162 5.93568 5.31938 5.99731 5.24168 6.07501L1.90835 9.40834C1.83248 9.4876 1.77301 9.58105 1.73335 9.68334C1.65 9.88623 1.65 10.1138 1.73335 10.3167C1.77301 10.419 1.83248 10.5124 1.90835 10.5917L5.24168 13.925C5.31915 14.0031 5.41132 14.0651 5.51287 14.1074C5.61442 14.1497 5.72334 14.1715 5.83335 14.1715C5.94336 14.1715 6.05228 14.1497 6.15383 14.1074C6.25538 14.0651 6.34755 14.0031 6.42502 13.925C6.50312 13.8475 6.56512 13.7554 6.60742 13.6538C6.64973 13.5523 6.67151 13.4434 6.67151 13.3333C6.67151 13.2233 6.64973 13.1144 6.60742 13.0129C6.56512 12.9113 6.50312 12.8191 6.42502 12.7417L4.50835 10.8333H14.1667C14.3877 10.8333 14.5997 10.7455 14.7559 10.5893C14.9122 10.433 15 10.221 15 10C15 9.779 14.9122 9.56703 14.7559 9.41075C14.5997 9.25447 14.3877 9.16668 14.1667 9.16668ZM17.5 3.33334C17.279 3.33334 17.067 3.42114 16.9108 3.57742C16.7545 3.7337 16.6667 3.94566 16.6667 4.16668V15.8333C16.6667 16.0544 16.7545 16.2663 16.9108 16.4226C17.067 16.5789 17.279 16.6667 17.5 16.6667C17.721 16.6667 17.933 16.5789 18.0893 16.4226C18.2456 16.2663 18.3333 16.0544 18.3333 15.8333V4.16668C18.3333 3.94566 18.2456 3.7337 18.0893 3.57742C17.933 3.42114 17.721 3.33334 17.5 3.33334V3.33334Z" fill="black"/>
</svg>
