<svg width="20" height="20" viewBox="0 0 20 20" fill="none" xmlns="http://www.w3.org/2000/svg">
<path d="M5.83338 10.8333L15.4917 10.8333L13.575 12.7417C13.4973 12.8194 13.4357 12.9116 13.3937 13.0131C13.3516 13.1146 13.33 13.2234 13.33 13.3333C13.33 13.4432 13.3516 13.552 13.3937 13.6535C13.4357 13.755 13.4973 13.8473 13.575 13.925C13.6527 14.0027 13.745 14.0643 13.8465 14.1064C13.948 14.1484 14.0568 14.1701 14.1667 14.1701C14.2766 14.1701 14.3854 14.1484 14.4869 14.1064C14.5884 14.0643 14.6807 14.0027 14.7584 13.925L18.0917 10.5917C18.1676 10.5124 18.227 10.4189 18.2667 10.3167C18.3501 10.1138 18.3501 9.88621 18.2667 9.68332C18.227 9.58103 18.1676 9.48758 18.0917 9.40832L14.7584 6.07499C14.6809 5.99688 14.5887 5.93489 14.4872 5.89258C14.3856 5.85027 14.2767 5.82849 14.1667 5.82849C14.0567 5.82849 13.9478 5.85027 13.8462 5.89258C13.7447 5.93489 13.6525 5.99688 13.575 6.07499C13.4969 6.15246 13.4349 6.24463 13.3926 6.34618C13.3503 6.44773 13.3285 6.55665 13.3285 6.66666C13.3285 6.77667 13.3503 6.88559 13.3926 6.98714C13.4349 7.08869 13.4969 7.18085 13.575 7.25832L15.4917 9.16666L5.83338 9.16666C5.61237 9.16666 5.4004 9.25446 5.24412 9.41074C5.08784 9.56702 5.00005 9.77898 5.00005 9.99999C5.00005 10.221 5.08784 10.433 5.24412 10.5892C5.4004 10.7455 5.61237 10.8333 5.83338 10.8333ZM2.50005 16.6667C2.72106 16.6667 2.93302 16.5789 3.0893 16.4226C3.24558 16.2663 3.33338 16.0543 3.33338 15.8333L3.33338 4.16666C3.33338 3.94564 3.24558 3.73368 3.0893 3.5774C2.93302 3.42112 2.72106 3.33332 2.50004 3.33332C2.27903 3.33332 2.06707 3.42112 1.91079 3.5774C1.75451 3.73368 1.66671 3.94564 1.66671 4.16666L1.66671 15.8333C1.66671 16.0543 1.75451 16.2663 1.91079 16.4226C2.06707 16.5789 2.27903 16.6667 2.50005 16.6667V16.6667Z" fill="black"/>
</svg>
