<svg width="20" height="20" viewBox="0 0 20 20" fill="none" xmlns="http://www.w3.org/2000/svg">
<path d="M18.0333 10.8333C17.913 10.7339 17.7672 10.6702 17.6125 10.6496C17.4579 10.629 17.3005 10.6522 17.1583 10.7167C16.2771 11.1199 15.3191 11.3274 14.35 11.325C12.5574 11.3228 10.8383 10.612 9.56761 9.34758C8.29692 8.08313 7.57766 6.36758 7.56667 4.57499C7.57047 4.01319 7.64039 3.45378 7.775 2.90833C7.80356 2.76294 7.79285 2.61257 7.74396 2.47271C7.69507 2.33284 7.60978 2.20854 7.49687 2.1126C7.38395 2.01667 7.24751 1.95258 7.10158 1.92692C6.95565 1.90127 6.80553 1.91499 6.66667 1.96666C5.36027 2.55408 4.22464 3.46396 3.36646 4.61081C2.50829 5.75767 1.95573 7.10385 1.76071 8.5229C1.56568 9.94195 1.73459 11.3873 2.25156 12.7231C2.76853 14.059 3.61659 15.2415 4.71608 16.1596C5.81557 17.0776 7.1304 17.7011 8.53704 17.9715C9.94368 18.2419 11.396 18.1502 12.7575 17.7052C14.119 17.2601 15.345 16.4763 16.3203 15.4273C17.2957 14.3783 17.9884 13.0986 18.3333 11.7083C18.3753 11.5492 18.3693 11.3811 18.3159 11.2254C18.2625 11.0697 18.1642 10.9332 18.0333 10.8333V10.8333ZM10.1167 16.4083C8.71813 16.3985 7.35683 15.9566 6.21916 15.1431C5.08148 14.3297 4.22305 13.1844 3.7614 11.8643C3.29975 10.5441 3.25744 9.11348 3.64028 7.76833C4.02312 6.42318 4.81238 5.22924 5.9 4.34999V4.57499C5.9022 6.8154 6.79318 8.96341 8.37738 10.5476C9.96159 12.1318 12.1096 13.0228 14.35 13.025C14.9382 13.0272 15.525 12.9657 16.1 12.8417C15.5249 13.9296 14.6637 14.8399 13.6093 15.4743C12.5549 16.1087 11.3472 16.4432 10.1167 16.4417V16.4083Z" fill="black"/>
</svg>
