<svg width="20" height="20" viewBox="0 0 20 20" fill="none" xmlns="http://www.w3.org/2000/svg">
<path d="M10 0C11.3132 0 12.6136 0.258658 13.8268 0.761205C15.0401 1.26375 16.1425 2.00035 17.0711 2.92893C17.9997 3.85752 18.7362 4.95991 19.2388 6.17317C19.7413 7.38642 20 8.68678 20 10C20 12.6522 18.9464 15.1957 17.0711 17.0711C15.1957 18.9464 12.6522 20 10 20C8.68678 20 7.38642 19.7413 6.17317 19.2388C4.95991 18.7362 3.85752 17.9997 2.92893 17.0711C1.05357 15.1957 0 12.6522 0 10C0 7.34784 1.05357 4.8043 2.92893 2.92893C4.8043 1.05357 7.34784 0 10 0ZM10 2C9.33696 2 8.70107 2.26339 8.23223 2.73223C7.76339 3.20107 7.5 3.83696 7.5 4.5C7.5 5.16304 7.76339 5.79893 8.23223 6.26777C8.70107 6.73661 9.33696 7 10 7C10.663 7 11.2989 6.73661 11.7678 6.26777C12.2366 5.79893 12.5 5.16304 12.5 4.5C12.5 3.83696 12.2366 3.20107 11.7678 2.73223C11.2989 2.26339 10.663 2 10 2ZM2.4 7.53C1.97 8.84 2.69 10.25 4 10.68C5.32 11.1 6.73 10.39 7.15 9.07C7.58 7.76 6.86 6.35 5.55 5.92C4.24 5.5 2.82 6.21 2.4 7.53ZM17.61 7.5C17.18 6.21 15.77 5.5 14.46 5.92C13.14 6.34 12.42 7.75 12.85 9.07C13.28 10.38 14.69 11.1 16 10.67C17.31 10.25 18.03 8.83 17.61 7.5ZM5.31 16.46C6.42 17.28 8 17.03 8.8 15.91C9.61 14.79 9.36 13.23 8.24 12.42C7.13 11.61 5.56 11.86 4.75 12.97C3.94 14.09 4.19 15.65 5.31 16.46ZM14.7 16.46C15.82 15.65 16.07 14.09 15.26 12.97C14.45 11.85 12.88 11.6 11.77 12.42C10.65 13.23 10.4 14.79 11.21 15.91C12 17.03 13.59 17.27 14.7 16.46ZM10 8.5C9.60218 8.5 9.22064 8.65804 8.93934 8.93934C8.65804 9.22064 8.5 9.60218 8.5 10C8.5 10.3978 8.65804 10.7794 8.93934 11.0607C9.22064 11.342 9.60218 11.5 10 11.5C10.3978 11.5 10.7794 11.342 11.0607 11.0607C11.342 10.7794 11.5 10.3978 11.5 10C11.5 9.60218 11.342 9.22064 11.0607 8.93934C10.7794 8.65804 10.3978 8.5 10 8.5Z" fill="black"/>
</svg>

