<svg width="20" height="20" viewBox="0 0 20 20" fill="none" xmlns="http://www.w3.org/2000/svg">
<path d="M2.50001 10H7.5C7.72102 10 7.93298 9.9122 8.08926 9.75592C8.24554 9.59964 8.33334 9.38768 8.33334 9.16667V4.16667C8.33334 3.94565 8.24554 3.73369 8.08926 3.57741C7.93298 3.42113 7.72102 3.33333 7.5 3.33333H2.50001C2.27899 3.33333 2.06703 3.42113 1.91075 3.57741C1.75447 3.73369 1.66667 3.94565 1.66667 4.16667V9.16667C1.66667 9.38768 1.75447 9.59964 1.91075 9.75592C2.06703 9.9122 2.27899 10 2.50001 10ZM3.33334 5H6.66667V8.33333H3.33334V5ZM10.8333 6.66667H17.5C17.721 6.66667 17.933 6.57887 18.0893 6.42259C18.2455 6.26631 18.3333 6.05435 18.3333 5.83333C18.3333 5.61232 18.2455 5.40036 18.0893 5.24408C17.933 5.0878 17.721 5 17.5 5H10.8333C10.6123 5 10.4004 5.0878 10.2441 5.24408C10.0878 5.40036 10 5.61232 10 5.83333C10 6.05435 10.0878 6.26631 10.2441 6.42259C10.4004 6.57887 10.6123 6.66667 10.8333 6.66667V6.66667ZM10.8333 15H2.50001C2.27899 15 2.06703 15.0878 1.91075 15.2441C1.75447 15.4004 1.66667 15.6123 1.66667 15.8333C1.66667 16.0543 1.75447 16.2663 1.91075 16.4226C2.06703 16.5789 2.27899 16.6667 2.50001 16.6667H10.8333C11.0544 16.6667 11.2663 16.5789 11.4226 16.4226C11.5789 16.2663 11.6667 16.0543 11.6667 15.8333C11.6667 15.6123 11.5789 15.4004 11.4226 15.2441C11.2663 15.0878 11.0544 15 10.8333 15ZM17.5 11.6667H2.50001C2.27899 11.6667 2.06703 11.7545 1.91075 11.9107C1.75447 12.067 1.66667 12.279 1.66667 12.5C1.66667 12.721 1.75447 12.933 1.91075 13.0893C2.06703 13.2455 2.27899 13.3333 2.50001 13.3333H17.5C17.721 13.3333 17.933 13.2455 18.0893 13.0893C18.2455 12.933 18.3333 12.721 18.3333 12.5C18.3333 12.279 18.2455 12.067 18.0893 11.9107C17.933 11.7545 17.721 11.6667 17.5 11.6667ZM17.5 8.33333H10.8333C10.6123 8.33333 10.4004 8.42113 10.2441 8.57741C10.0878 8.73369 10 8.94565 10 9.16667C10 9.38768 10.0878 9.59964 10.2441 9.75592C10.4004 9.9122 10.6123 10 10.8333 10H17.5C17.721 10 17.933 9.9122 18.0893 9.75592C18.2455 9.59964 18.3333 9.38768 18.3333 9.16667C18.3333 8.94565 18.2455 8.73369 18.0893 8.57741C17.933 8.42113 17.721 8.33333 17.5 8.33333Z" fill="black"/>
</svg>
