<svg width="20" height="20" viewBox="0 0 20 20" fill="none" xmlns="http://www.w3.org/2000/svg">
<path d="M16.5833 10.55C16.4497 10.3979 16.3761 10.2024 16.3761 10C16.3761 9.79758 16.4497 9.60208 16.5833 9.45L17.65 8.25C17.7675 8.11889 17.8405 7.95392 17.8585 7.77876C17.8765 7.60359 17.8385 7.42724 17.75 7.275L16.0833 4.39167C15.9957 4.2396 15.8624 4.11907 15.7023 4.04724C15.5422 3.97541 15.3635 3.95597 15.1917 3.99167L13.625 4.30834C13.4256 4.34953 13.2181 4.31633 13.0416 4.215C12.865 4.11368 12.7317 3.95124 12.6667 3.75834L12.1583 2.23334C12.1024 2.06782 11.9959 1.92406 11.8539 1.82237C11.7118 1.72068 11.5414 1.66622 11.3667 1.66667H8.03333C7.85161 1.65718 7.67177 1.70744 7.5213 1.80976C7.37082 1.91209 7.25798 2.06085 7.19999 2.23334L6.73333 3.75834C6.66833 3.95124 6.53497 4.11368 6.35842 4.215C6.18187 4.31633 5.97434 4.34953 5.77499 4.30834L4.16666 3.99167C4.00379 3.96865 3.83774 3.99435 3.68945 4.06553C3.54116 4.13672 3.41725 4.25019 3.33333 4.39167L1.66666 7.275C1.57596 7.42554 1.53518 7.60091 1.55015 7.77602C1.56511 7.95114 1.63506 8.11704 1.74999 8.25L2.80833 9.45C2.94193 9.60208 3.01561 9.79758 3.01561 10C3.01561 10.2024 2.94193 10.3979 2.80833 10.55L1.74999 11.75C1.63506 11.883 1.56511 12.0489 1.55015 12.224C1.53518 12.3991 1.57596 12.5745 1.66666 12.725L3.33333 15.6083C3.42091 15.7604 3.55426 15.8809 3.71437 15.9528C3.87448 16.0246 4.05318 16.044 4.225 16.0083L5.79166 15.6917C5.99101 15.6505 6.19854 15.6837 6.37509 15.785C6.55164 15.8863 6.685 16.0488 6.74999 16.2417L7.25833 17.7667C7.31631 17.9392 7.42916 18.0879 7.57963 18.1902C7.73011 18.2926 7.90994 18.3428 8.09166 18.3333H11.425C11.5997 18.3338 11.7701 18.2793 11.9122 18.1776C12.0542 18.0759 12.1608 17.9322 12.2167 17.7667L12.725 16.2417C12.79 16.0488 12.9234 15.8863 13.0999 15.785C13.2764 15.6837 13.484 15.6505 13.6833 15.6917L15.25 16.0083C15.4218 16.044 15.6005 16.0246 15.7606 15.9528C15.9207 15.8809 16.0541 15.7604 16.1417 15.6083L17.8083 12.725C17.8968 12.5728 17.9348 12.3964 17.9168 12.2212C17.8989 12.0461 17.8259 11.8811 17.7083 11.75L16.5833 10.55ZM15.3417 11.6667L16.0083 12.4167L14.9417 14.2667L13.9583 14.0667C13.3581 13.944 12.7338 14.0459 12.2038 14.3532C11.6738 14.6604 11.2751 15.1515 11.0833 15.7333L10.7667 16.6667H8.63333L8.33333 15.7167C8.14154 15.1349 7.74281 14.6437 7.21283 14.3365C6.68285 14.0293 6.05851 13.9273 5.45833 14.05L4.47499 14.25L3.39166 12.4083L4.05833 11.6583C4.46829 11.2 4.69494 10.6066 4.69494 9.99167C4.69494 9.37672 4.46829 8.78335 4.05833 8.325L3.39166 7.575L4.45833 5.74167L5.44166 5.94167C6.04185 6.06435 6.66618 5.9624 7.19617 5.65517C7.72615 5.34793 8.12487 4.8568 8.31666 4.275L8.63333 3.33334H10.7667L11.0833 4.28333C11.2751 4.86513 11.6738 5.35627 12.2038 5.6635C12.7338 5.97074 13.3581 6.07269 13.9583 5.95L14.9417 5.75L16.0083 7.6L15.3417 8.35C14.9363 8.8073 14.7125 9.39724 14.7125 10.0083C14.7125 10.6194 14.9363 11.2094 15.3417 11.6667V11.6667ZM9.69999 6.66667C9.04072 6.66667 8.39626 6.86217 7.84809 7.22844C7.29993 7.59471 6.87269 8.1153 6.6204 8.72439C6.3681 9.33348 6.30209 10.0037 6.43071 10.6503C6.55933 11.2969 6.8768 11.8908 7.34297 12.357C7.80915 12.8232 8.40309 13.1407 9.04969 13.2693C9.6963 13.3979 10.3665 13.3319 10.9756 13.0796C11.5847 12.8273 12.1053 12.4001 12.4716 11.8519C12.8378 11.3037 13.0333 10.6593 13.0333 10C13.0333 9.11595 12.6821 8.2681 12.057 7.64298C11.4319 7.01786 10.584 6.66667 9.69999 6.66667V6.66667ZM9.69999 11.6667C9.37036 11.6667 9.04813 11.5689 8.77404 11.3858C8.49996 11.2026 8.28634 10.9424 8.1602 10.6378C8.03405 10.3333 8.00104 9.99815 8.06535 9.67485C8.12966 9.35155 8.2884 9.05458 8.52148 8.82149C8.75457 8.5884 9.05154 8.42967 9.37484 8.36536C9.69815 8.30105 10.0333 8.33406 10.3378 8.4602C10.6423 8.58635 10.9026 8.79997 11.0858 9.07405C11.2689 9.34813 11.3667 9.67037 11.3667 10C11.3667 10.442 11.1911 10.866 10.8785 11.1785C10.5659 11.4911 10.142 11.6667 9.69999 11.6667Z" fill="black"/>
</svg>
