<svg width="20" height="20" viewBox="0 0 20 20" fill="none" xmlns="http://www.w3.org/2000/svg">
<path d="M4.7 14.1667L4.10834 14.7583C3.95313 14.9145 3.86601 15.1257 3.86601 15.3458C3.86601 15.566 3.95313 15.7772 4.10834 15.9333C4.26447 16.0885 4.47568 16.1757 4.69584 16.1757C4.91599 16.1757 5.1272 16.0885 5.28334 15.9333L5.87501 15.3417C6.01153 15.1822 6.08287 14.9772 6.07476 14.7674C6.06666 14.5577 5.97972 14.3588 5.83131 14.2104C5.6829 14.0619 5.48395 13.975 5.27422 13.9669C5.06449 13.9588 4.85942 14.0301 4.7 14.1667V14.1667ZM4.16667 9.99999C4.16667 9.77898 4.07887 9.56701 3.92259 9.41073C3.76631 9.25445 3.55435 9.16666 3.33334 9.16666H2.50001C2.27899 9.16666 2.06703 9.25445 1.91075 9.41073C1.75447 9.56701 1.66667 9.77898 1.66667 9.99999C1.66667 10.221 1.75447 10.433 1.91075 10.5892C2.06703 10.7455 2.27899 10.8333 2.50001 10.8333H3.33334C3.55435 10.8333 3.76631 10.7455 3.92259 10.5892C4.07887 10.433 4.16667 10.221 4.16667 9.99999ZM10 4.16666C10.221 4.16666 10.433 4.07886 10.5893 3.92258C10.7455 3.7663 10.8333 3.55434 10.8333 3.33332V2.49999C10.8333 2.27898 10.7455 2.06701 10.5893 1.91073C10.433 1.75445 10.221 1.66666 10 1.66666C9.77899 1.66666 9.56703 1.75445 9.41075 1.91073C9.25447 2.06701 9.16667 2.27898 9.16667 2.49999V3.33332C9.16667 3.55434 9.25447 3.7663 9.41075 3.92258C9.56703 4.07886 9.77899 4.16666 10 4.16666ZM4.7 5.87499C4.85522 6.02894 5.06472 6.11574 5.28334 6.11666C5.39301 6.11729 5.50173 6.09627 5.60326 6.0548C5.70479 6.01333 5.79714 5.95222 5.87501 5.87499C6.03021 5.71885 6.11733 5.50764 6.11733 5.28749C6.11733 5.06733 6.03021 4.85613 5.87501 4.69999L5.28334 4.10832C5.12392 3.9718 4.91886 3.90046 4.70913 3.90856C4.4994 3.91666 4.30045 4.00361 4.15204 4.15202C4.00362 4.30043 3.91668 4.49938 3.90858 4.70911C3.90048 4.91884 3.97182 5.12391 4.10834 5.28332L4.7 5.87499ZM14.7 6.11666C14.9186 6.11574 15.1281 6.02894 15.2833 5.87499L15.875 5.28332C15.9622 5.20862 16.0331 5.11669 16.0831 5.0133C16.1331 4.90991 16.1612 4.7973 16.1657 4.68253C16.1701 4.56777 16.1508 4.45333 16.1089 4.34639C16.067 4.23945 16.0034 4.14233 15.9222 4.06111C15.841 3.9799 15.7439 3.91635 15.6369 3.87446C15.53 3.83256 15.4156 3.81322 15.3008 3.81766C15.186 3.82209 15.0734 3.8502 14.97 3.90022C14.8666 3.95024 14.7747 4.02109 14.7 4.10832L14.1667 4.69999C14.0115 4.85613 13.9243 5.06733 13.9243 5.28749C13.9243 5.50764 14.0115 5.71885 14.1667 5.87499C14.3136 6.02112 14.5097 6.10728 14.7167 6.11666H14.7ZM17.5 9.16666H16.6667C16.4457 9.16666 16.2337 9.25445 16.0774 9.41073C15.9211 9.56701 15.8333 9.77898 15.8333 9.99999C15.8333 10.221 15.9211 10.433 16.0774 10.5892C16.2337 10.7455 16.4457 10.8333 16.6667 10.8333H17.5C17.721 10.8333 17.933 10.7455 18.0893 10.5892C18.2455 10.433 18.3333 10.221 18.3333 9.99999C18.3333 9.77898 18.2455 9.56701 18.0893 9.41073C17.933 9.25445 17.721 9.16666 17.5 9.16666ZM10 15.8333C9.77899 15.8333 9.56703 15.9211 9.41075 16.0774C9.25447 16.2337 9.16667 16.4456 9.16667 16.6667V17.5C9.16667 17.721 9.25447 17.933 9.41075 18.0892C9.56703 18.2455 9.77899 18.3333 10 18.3333C10.221 18.3333 10.433 18.2455 10.5893 18.0892C10.7455 17.933 10.8333 17.721 10.8333 17.5V16.6667C10.8333 16.4456 10.7455 16.2337 10.5893 16.0774C10.433 15.9211 10.221 15.8333 10 15.8333ZM15.3 14.1667C15.1417 14.0786 14.959 14.0445 14.7796 14.0696C14.6001 14.0947 14.4338 14.1776 14.3057 14.3057C14.1776 14.4338 14.0947 14.6001 14.0696 14.7795C14.0445 14.959 14.0786 15.1417 14.1667 15.3L14.7583 15.8917C14.9145 16.0469 15.1257 16.134 15.3458 16.134C15.566 16.134 15.7772 16.0469 15.9333 15.8917C16.0885 15.7355 16.1757 15.5243 16.1757 15.3042C16.1757 15.084 16.0885 14.8728 15.9333 14.7167L15.3 14.1667ZM10 5.41666C9.09351 5.41666 8.20737 5.68546 7.45364 6.18909C6.69992 6.69271 6.11246 7.40853 5.76556 8.24602C5.41866 9.08352 5.32789 10.0051 5.50474 10.8942C5.68159 11.7832 6.11811 12.5999 6.7591 13.2409C7.40009 13.8819 8.21676 14.3184 9.10584 14.4953C9.99492 14.6721 10.9165 14.5813 11.754 14.2344C12.5915 13.8875 13.3073 13.3001 13.8109 12.5464C14.3145 11.7926 14.5833 10.9065 14.5833 9.99999C14.5811 8.78509 14.0975 7.62058 13.2385 6.76152C12.3794 5.90245 11.2149 5.41886 10 5.41666ZM10 12.9167C9.42314 12.9167 8.85923 12.7456 8.37959 12.4251C7.89995 12.1046 7.52611 11.6491 7.30536 11.1161C7.0846 10.5832 7.02684 9.99675 7.13938 9.43098C7.25192 8.8652 7.52971 8.3455 7.93761 7.9376C8.34551 7.52969 8.86521 7.25191 9.43099 7.13937C9.99677 7.02683 10.5832 7.08459 11.1162 7.30534C11.6491 7.5261 12.1046 7.89993 12.4251 8.37958C12.7456 8.85922 12.9167 9.42313 12.9167 9.99999C12.9167 10.7735 12.6094 11.5154 12.0624 12.0624C11.5154 12.6094 10.7736 12.9167 10 12.9167V12.9167Z" fill="black"/>
</svg>
