<svg width="20" height="20" viewBox="0 0 20 20" fill="none" xmlns="http://www.w3.org/2000/svg">
<path d="M10.25 10.1833C10.6946 9.79845 11.0513 9.32241 11.2957 8.78752C11.5402 8.25264 11.6667 7.67143 11.6667 7.08334C11.6667 5.97827 11.2277 4.91846 10.4463 4.13706C9.66487 3.35566 8.60506 2.91667 7.49999 2.91667C6.39493 2.91667 5.33512 3.35566 4.55372 4.13706C3.77231 4.91846 3.33333 5.97827 3.33333 7.08334C3.33332 7.67143 3.45983 8.25264 3.70427 8.78752C3.9487 9.32241 4.30535 9.79845 4.74999 10.1833C3.58344 10.7116 2.59372 11.5646 1.89915 12.6405C1.20457 13.7163 0.834555 14.9694 0.833328 16.25C0.833328 16.471 0.921126 16.683 1.07741 16.8393C1.23369 16.9955 1.44565 17.0833 1.66666 17.0833C1.88768 17.0833 2.09964 16.9955 2.25592 16.8393C2.4122 16.683 2.49999 16.471 2.49999 16.25C2.49999 14.9239 3.02678 13.6522 3.96446 12.7145C4.90214 11.7768 6.17391 11.25 7.49999 11.25C8.82608 11.25 10.0978 11.7768 11.0355 12.7145C11.9732 13.6522 12.5 14.9239 12.5 16.25C12.5 16.471 12.5878 16.683 12.7441 16.8393C12.9004 16.9955 13.1123 17.0833 13.3333 17.0833C13.5543 17.0833 13.7663 16.9955 13.9226 16.8393C14.0789 16.683 14.1667 16.471 14.1667 16.25C14.1654 14.9694 13.7954 13.7163 13.1008 12.6405C12.4063 11.5646 11.4165 10.7116 10.25 10.1833V10.1833ZM7.49999 9.58334C7.00554 9.58334 6.52219 9.43672 6.11107 9.16201C5.69995 8.88731 5.37952 8.49686 5.1903 8.04005C5.00108 7.58323 4.95157 7.08057 5.04803 6.59561C5.14449 6.11066 5.3826 5.6652 5.73223 5.31557C6.08186 4.96594 6.52732 4.72784 7.01227 4.63138C7.49722 4.53491 7.99989 4.58442 8.4567 4.77364C8.91352 4.96286 9.30397 5.28329 9.57867 5.69441C9.85337 6.10554 9.99999 6.58889 9.99999 7.08334C9.99999 7.74638 9.7366 8.38227 9.26776 8.85111C8.79892 9.31995 8.16304 9.58334 7.49999 9.58334ZM15.6167 9.85001C16.15 9.24945 16.4983 8.50755 16.6198 7.71362C16.7413 6.91969 16.6308 6.10757 16.3015 5.37501C15.9722 4.64244 15.4382 4.02067 14.7637 3.58452C14.0893 3.14838 13.3032 2.91646 12.5 2.91667C12.279 2.91667 12.067 3.00447 11.9107 3.16075C11.7545 3.31703 11.6667 3.52899 11.6667 3.75001C11.6667 3.97102 11.7545 4.18298 11.9107 4.33926C12.067 4.49554 12.279 4.58334 12.5 4.58334C13.163 4.58334 13.7989 4.84673 14.2678 5.31557C14.7366 5.78441 15 6.4203 15 7.08334C14.9988 7.52104 14.8827 7.95076 14.6634 8.32952C14.444 8.70829 14.1291 9.02282 13.75 9.24167C13.6264 9.31294 13.5233 9.41473 13.4503 9.53729C13.3773 9.65985 13.3371 9.79909 13.3333 9.94167C13.3298 10.0831 13.3624 10.2232 13.428 10.3486C13.4937 10.4739 13.5901 10.5805 13.7083 10.6583L14.0333 10.875L14.1417 10.9333C15.1462 11.4098 15.9936 12.1633 16.5841 13.1053C17.1747 14.0472 17.4838 15.1383 17.475 16.25C17.475 16.471 17.5628 16.683 17.7191 16.8393C17.8754 16.9955 18.0873 17.0833 18.3083 17.0833C18.5293 17.0833 18.7413 16.9955 18.8976 16.8393C19.0539 16.683 19.1417 16.471 19.1417 16.25C19.1485 14.9712 18.8282 13.7119 18.2112 12.5917C17.5943 11.4716 16.7011 10.5278 15.6167 9.85001V9.85001Z" fill="black"/>
</svg>
