<?xml version="1.0" encoding="iso-8859-1"?>
<!-- Uploaded to: SVG Repo, www.svgrepo.com, Generator: SVG Repo Mixer Tools -->
<!DOCTYPE svg PUBLIC "-//W3C//DTD SVG 1.1//EN" "http://www.w3.org/Graphics/SVG/1.1/DTD/svg11.dtd">
<svg fill="#000000" version="1.1" id="Capa_1" xmlns="http://www.w3.org/2000/svg" xmlns:xlink="http://www.w3.org/1999/xlink" 
	 width="800px" height="800px" viewBox="0 0 489.705 489.705"
	 xml:space="preserve">
<g>
	<path d="M444.418,218.717l-43.334-61.098v-28.09V83.558c0.1-0.731,0.17-1.473,0.17-2.232V16.368
		c0-9.039-7.328-16.367-16.367-16.367c-9.041,0-16.368,7.328-16.368,16.367v5.927h-0.101v10.558H121.286V22.294h-0.031v-5.927
		C121.255,7.328,113.927,0,104.888,0C95.847,0,88.52,7.328,88.52,16.367v64.958c0,0.216,0.024,0.425,0.032,0.639v47.565v28.187
		l-43.265,61.001c-1.454,2.05-2.235,4.501-2.235,7.015v87.103c0,6.696,5.428,12.125,12.124,12.125h29.099
		c0.557,0.392,1.133,0.765,1.749,1.093l123.17,65.984l-123.17,65.984c-8.198,4.391-11.284,14.598-6.893,22.793
		c3.036,5.668,8.85,8.891,14.858,8.891c2.684,0,5.406-0.643,7.937-1.996l142.926-76.568l142.928,76.566
		c2.531,1.355,5.252,1.998,7.937,1.998c6.009,0,11.821-3.225,14.857-8.891c4.393-8.197,1.308-18.404-6.892-22.795l-123.17-65.984
		l123.17-65.982c0.615-0.33,1.19-0.701,1.748-1.094h29.099c6.696,0,12.124-5.43,12.124-12.125v-87.103
		C446.653,223.218,445.872,220.767,444.418,218.717z M88.551,225.751L68.297,300.71h-0.998v-71.116l21.252-29.964V225.751z
		 M244.852,372.934L136.08,314.663h217.546L244.852,372.934z M369.352,169h-249v-49.147h249V169z M422.405,300.71h-1.065
		l-20.254-74.959v-26.218l21.319,30.061V300.71z"/>
</g>
</svg>