<svg width="24" height="25" viewBox="0 0 24 25" fill="none" xmlns="http://www.w3.org/2000/svg">
<path d="M9 17.5491H13C13.2833 17.5491 13.521 17.4531 13.713 17.2611C13.905 17.0691 14.0007 16.8317 14 16.5491V15.5491L16 16.5991V12.4991L14 13.5491V12.5491C14 12.2657 13.904 12.0284 13.712 11.8371C13.52 11.6457 13.2827 11.5497 13 11.5491H9C8.71667 11.5491 8.479 11.6451 8.287 11.8371C8.095 12.0291 7.99933 12.2664 8 12.5491V16.5491C8 16.8324 8.096 17.0701 8.288 17.2621C8.48 17.4541 8.71733 17.5497 9 17.5491ZM4 21.5491V9.54907L12 3.54907L20 9.54907V21.5491H4ZM6 19.5491H18V10.5491L12 6.04907L6 10.5491V19.5491Z" fill="black"/>
</svg>
