<svg class="svg-icon" style="width: 1em; height: 1em;vertical-align: middle;fill: currentColor;overflow: hidden;" viewBox="0 0 1024 1024" version="1.1" xmlns="http://www.w3.org/2000/svg"><path d="M539.823104 252.942336c0 0-80.912384 246.293504-22.859776 413.416448 58.054656 167.120896 206.913536 92.17024 242.770944 63.326208 40.45312-32.536576 154.804224-146.008064 199.836672-355.35872C696.404992 430.62784 539.823104 252.942336 539.823104 252.942336zM557.275136 426.668032c15.906816-24.984576 113.153024-3.678208 103.071744 65.608704L557.275136 426.668032zM573.257728 594.234368c25.089024 30.306304 98.510848 73.015296 174.157824 51.013632C643.628032 739.369984 573.257728 641.73056 573.257728 594.234368zM728.070144 509.796352c0-29.00992 91.518976-62.542848 119.620608 0L728.070144 509.796352z"  /><path d="M504.644608 264.820736l-19.789824-73.890816C286.949376 365.089792 62.647296 283.286528 62.647296 283.286528s30.350336 229.573632 167.564288 366.792704c137.218048 137.219072 244.089856-3.956736 244.089856-31.663104C443.951104 515.495936 484.854784 272.733184 504.644608 264.820736zM166.882304 437.659648l100.276224-50.138112C285.627392 454.807552 178.75968 465.364992 166.882304 437.659648zM268.478464 631.609344c0-40.900608 80.482304-127.980544 174.1568-42.220544C327.51616 569.587712 281.674752 618.416128 268.478464 631.609344zM341.341184 366.132224l112.033792 3.90656C437.441536 437.966848 338.514944 396.148736 341.341184 366.132224z"  /></svg>