<svg width="512" height="512" viewBox="0 0 512 512" fill="none" xmlns="http://www.w3.org/2000/svg">
<path d="M366.05 146C357.731 137.678 352.86 126.523 352.411 114.764C351.963 103.006 355.969 91.5116 363.63 82.58C364.264 81.8372 364.593 80.8823 364.552 79.9068C364.512 78.9313 364.104 78.0073 363.41 77.32L319.28 33.14C318.551 32.4109 317.562 32.0013 316.53 32.0013C315.499 32.0013 314.51 32.4109 313.78 33.14L243.44 103.48C240.845 106.075 238.89 109.238 237.73 112.72C236.575 116.21 234.622 119.382 232.027 121.986C229.432 124.59 226.266 126.553 222.78 127.72C219.296 128.881 216.129 130.836 213.53 133.43L33.1402 313.78C32.4111 314.509 32.0015 315.499 32.0015 316.53C32.0015 317.561 32.4111 318.551 33.1402 319.28L77.2702 363.41C77.9575 364.103 78.8815 364.511 79.857 364.552C80.8325 364.593 81.7873 364.264 82.5302 363.63C91.4599 355.961 102.957 351.948 114.719 352.394C126.482 352.84 137.641 357.712 145.965 366.036C154.288 374.359 159.16 385.519 159.606 397.281C160.052 409.043 156.039 420.54 148.37 429.47C147.737 430.213 147.407 431.168 147.448 432.143C147.489 433.119 147.897 434.043 148.59 434.73L192.72 478.86C193.45 479.589 194.439 479.999 195.47 479.999C196.502 479.999 197.491 479.589 198.22 478.86L378.62 298.47C381.214 295.871 383.169 292.704 384.33 289.22C385.486 285.73 387.438 282.558 390.033 279.954C392.628 277.35 395.794 275.387 399.28 274.22C402.762 273.06 405.926 271.105 408.52 268.51L478.86 198.17C479.589 197.441 479.999 196.451 479.999 195.42C479.999 194.389 479.589 193.399 478.86 192.67L434.73 148.54C434.043 147.847 433.119 147.439 432.143 147.398C431.168 147.357 430.213 147.686 429.47 148.32C420.551 155.994 409.064 160.018 397.306 159.588C385.547 159.158 374.385 154.305 366.05 146Z" stroke="black" stroke-width="32" stroke-miterlimit="10"/>
<path d="M250.5 140.44L233.99 123.93M294.52 184.46L283.51 173.46M338.54 228.49L327.54 217.48M388.07 278.01L371.56 261.5" stroke="black" stroke-width="32" stroke-miterlimit="10" stroke-linecap="round"/>
</svg>
