<?xml version="1.0" encoding="utf-8"?>
<!-- Generator: Adobe Illustrator 26.2.1, SVG Export Plug-In . SVG Version: 6.00 Build 0)  -->
<svg version="1.1" id="Layer_1" xmlns="http://www.w3.org/2000/svg" xmlns:xlink="http://www.w3.org/1999/xlink" x="0px" y="0px"
	 viewBox="0 0 303.5 17.8" style="enable-background:new 0 0 303.5 17.8;" xml:space="preserve">
<style type="text/css">
	.st0{fill:#999999;}
	.st1{fill:#FFFFFF;}
</style>
<path class="st0" d="M180.5,17.8H123c-1.1,0-2-0.9-2-2V2c0-1.1,0.9-2,2-2h57.5c1.1,0,2,0.9,2,2v13.8
	C182.5,16.9,181.6,17.8,180.5,17.8z"/>
<path class="st0" d="M300.2,12.1H3.2C1.5,12.1,0,10.7,0,8.9v0c0-1.8,1.5-3.2,3.2-3.2h297c1.8,0,3.2,1.5,3.2,3.2v0
	C303.5,10.7,302,12.1,300.2,12.1z"/>
<g>
	<g>
		<path class="st1" d="M135.6,11.2v2.4h-7.5v-10h7.5v2.3h-4.5v1.5h3.6v2.2h-3.6v1.6H135.6z"/>
		<path class="st1" d="M145.9,13.6h-3.4l-1.7-3.8l-1,1.5v2.3h-2.9v-10h2.9v4.1l2.8-4.1h2.8l-2.5,3.7L145.9,13.6z"/>
		<path class="st1" d="M155.6,13.6h-3.4l-1.5-3.8h-1v3.8h-3.1v-10h5.2c1.2,0,2,0.3,2.7,0.8c0.6,0.5,1,1.3,1,2.1
			c0,0.6-0.1,1.1-0.4,1.5c-0.2,0.4-0.7,0.8-1.4,1.2L155.6,13.6z M149.8,7.7h1.3c0.4,0,0.7-0.1,0.9-0.2s0.4-0.4,0.4-0.7
			c0-0.6-0.4-1-1.2-1h-1.4V7.7z"/>
		<path class="st1" d="M162.6,13.6l-0.6-2h-2.7l-0.6,2h-2.5l3.1-10h3.2l3.1,10H162.6z M159.8,9.5h1.6l-0.8-2.9L159.8,9.5z"/>
		<path class="st1" d="M175.2,13.6h-2.5l-2.7-4.4c-0.4-0.6-0.7-1.3-1.1-2.1c0.2,0.6,0.2,1.2,0.2,1.6v4.8h-2.5v-10h2.9l2.3,3.7
			c0.5,0.7,0.8,1.4,1.1,1.9c-0.2-0.9-0.2-1.7-0.2-2.6v-3h2.5V13.6z"/>
	</g>
</g>
<g>
</g>
<g>
</g>
<g>
</g>
<g>
</g>
<g>
</g>
<g>
</g>
</svg>
